<svg xmlns="http://www.w3.org/2000/svg" viewBox="0 0 640 512"><path d="M608 448c0 17.7-14.3 32-32 32H64c-17.7 0-32-14.3-32-32s14.3-32 32-32h512c17.7 0 32 14.3 32 32zm0-128c0 17.7-14.3 32-32 32H64c-17.7 0-32-14.3-32-32s14.3-32 32-32h512c17.7 0 32 14.3 32 32zM224 224H64c-17.7 0-32-14.3-32-32s14.3-32 32-32h160c17.7 0 32 14.3 32 32s-14.3 32-32 32zM256 64c0 17.7-14.3 32-32 32H64c-17.7 0-32-14.3-32-32s14.3-32 32-32h160c17.7 0 32 14.3 32 32zM384 224c-35.3 0-64-28.7-64-64V64c0-35.3 28.7-64 64-64h192c35.3 0 64 28.7 64 64v96c0 35.3-28.7 64-64 64H384z"/></svg>