<svg xmlns="http://www.w3.org/2000/svg" viewBox="0 0 640 512"><path d="M448 128c0-17.7 14.3-32 32-32h128c17.7 0 32 14.3 32 32s-14.3 32-32 32H480c-17.7 0-32-14.3-32-32zm0 128c0-17.7 14.3-32 32-32h128c17.7 0 32 14.3 32 32s-14.3 32-32 32H480c-17.7 0-32-14.3-32-32zm32 96h128c17.7 0 32 14.3 32 32s-14.3 32-32 32H480c-17.7 0-32-14.3-32-32s14.3-32 32-32zM0 127C0 91.7 28.7 63 64 63h256c35.3 0 64 28.7 64 64v256c0 35.3-28.7 64-64 64H64c-35.3 0-64-28.7-64-64V127zm232 64c-8 0-15.5 4-20 10.7l-56 84-17.3-21.7c-4.6-5.7-11.4-9-18.7-9s-14.2 3.3-18.7 9l-64 80c-5.8 7.2-6.9 17.1-2.9 25.4s12.4 13.6 21.6 13.6h272c8.9 0 17-4.9 21.2-12.7s3.7-17.3-1.2-24.6l-96-144c-4.5-6.7-12-10.7-20-10.7zM64 223c17.7 0 32-14.3 32-32s-14.3-32-32-32-32 14.3-32 32 14.3 32 32 32z"/></svg>