<svg xmlns="http://www.w3.org/2000/svg" viewBox="0 0 640 512"><path d="M64 416h512c17.7 0 32 14.3 32 32s-14.3 32-32 32H64c-17.7 0-32-14.3-32-32s14.3-32 32-32zm0-128h512c17.7 0 32 14.3 32 32s-14.3 32-32 32H64c-17.7 0-32-14.3-32-32s14.3-32 32-32zm320-96c0-17.7 14.3-32 32-32h160c17.7 0 32 14.3 32 32s-14.3 32-32 32H416c-17.7 0-32-14.3-32-32zM416 32h160c17.7 0 32 14.3 32 32s-14.3 32-32 32H416c-17.7 0-32-14.3-32-32s14.3-32 32-32zM64 224c-35.3 0-64-28.7-64-64V64C0 28.7 28.7 0 64 0h192c35.3 0 64 28.7 64 64v96c0 35.3-28.7 64-64 64H64z"/></svg>